<svg viewBox="0 0 1811 557" fill="none">
<path d="M803.85 394.97C750.245 394.97 712.97 372.605 712.97 336.75C712.97 283.855 789.295 281.37 843.965 275.335C874.495 271.785 896.15 267.17 896.15 255.1C896.15 246.935 885.855 240.9 867.04 240.9C845.03 240.9 831.185 250.485 826.215 265.04H719.005C732.85 213.565 794.265 181.97 873.075 181.97C965.375 181.97 1014.72 216.76 1014.72 276.4V390H896.505V366.925C875.205 385.74 843.965 394.97 803.85 394.97ZM826.57 329.65C826.57 338.17 835.445 344.205 852.485 344.205C868.815 344.205 885.855 338.88 896.505 330.005V300.895C887.63 304.8 875.915 306.93 864.555 309.06C843.965 312.61 826.57 316.16 826.57 329.65ZM1134.17 386.805C1065.66 386.805 1017.73 345.625 1017.73 284.92C1017.73 224.215 1066.01 183.035 1134.17 183.035C1172.16 183.035 1203.75 196.17 1223.99 219.245V188.36H1345.04V363.375C1345.04 424.79 1288.24 459.935 1184.94 459.935C1099.38 459.935 1044 435.085 1025.9 397.1H1144.11C1149.44 407.04 1161.51 412.72 1182.45 412.72C1208.72 412.72 1223.99 401.005 1223.99 380.06V350.595C1203.75 373.67 1172.16 386.805 1134.17 386.805ZM1178.9 325.745C1206.95 325.745 1226.12 311.545 1226.12 285.985C1226.12 260.425 1206.95 246.225 1178.9 246.225C1151.21 246.225 1132.04 260.425 1132.04 285.985C1132.04 311.545 1151.21 325.745 1178.9 325.745ZM1353.82 173.805V124.105H1474.16V173.805H1353.82ZM1353.82 390V188.36H1474.16V390H1353.82ZM1633.31 397.1C1542.79 397.1 1477.11 353.79 1477.11 289.18C1477.11 224.57 1543.14 180.905 1633.67 180.905C1719.58 180.905 1784.19 219.6 1790.58 278.53H1683.01C1677.69 259.005 1659.58 248 1636.86 248C1609.88 248 1590.71 262.555 1590.71 288.825C1590.71 315.805 1609.53 330.36 1636.86 330.36C1659.58 330.36 1678.04 319 1683.37 298.41H1790.58C1784.9 357.695 1719.93 397.1 1633.31 397.1Z" fill="#818CF8"/>
<path d="M599.503 148H428L568.616 391H748L599.503 148Z" fill="#818CF8"/>
<path d="M600 148L447.873 397L295 397.237L428.688 148H600Z" fill="#7FFEE9"/>
<path d="M0.805 397L143.87 148.5H304.33L447.04 397H295.1L277.705 362.92H160.555L143.16 397H0.805ZM219.13 247.9L190.02 304.7H248.24L219.13 247.9Z" fill="#4F46E5"/>
<path d="M304.5 148.5H143.5L295.5 397.5H448L304.5 148.5Z" fill="#6366F1"/>
<path d="M674.69 131.695C670.21 154.555 666.577 158.575 645.926 163.536C666.577 168.496 670.21 172.516 674.69 195.378C679.171 172.518 682.804 168.496 703.455 163.536C682.804 158.575 679.171 154.555 674.69 131.695Z" fill="#FBBF24"/>
<path d="M712.973 144.465C723.067 92.9647 731.25 83.9074 777.775 72.7326C731.25 61.5594 723.067 52.5004 712.973 1C702.879 52.5004 694.696 61.5578 648.171 72.7326C694.696 83.9074 702.879 92.9647 712.973 144.465Z" fill="#FBBF24"/>
<path d="M615.585 135.211C620.662 109.313 624.777 104.759 648.171 99.1405C624.775 93.5224 620.662 88.9661 615.585 63.0702C610.509 88.9677 606.394 93.5224 583 99.1405C606.394 104.759 610.509 109.313 615.585 135.211Z" fill="#FBBF24"/>
</svg>
