<svg width="778" height="522" viewBox="0 0 778 522" fill="none" xmlns="http://www.w3.org/2000/svg">
<g clip-path="url(#clip0_10_217)">
<path d="M599.503 147H428L568.616 390H748L599.503 147Z" fill="#818CF8"/>
<path d="M600 147L447.873 396L295 396.237L428.688 147H600Z" fill="#7FFEE9"/>
<path d="M0.805 396L143.87 147.5H304.33L447.04 396H295.1L277.705 361.92H160.555L143.16 396H0.805ZM219.13 246.9L190.02 303.7H248.24L219.13 246.9Z" fill="#4F46E5"/>
<path d="M304.5 147.5H143.5L295.5 396.5H448L304.5 147.5Z" fill="#6366F1"/>
<path d="M674.69 130.695C670.21 153.555 666.577 157.575 645.926 162.536C666.577 167.496 670.21 171.517 674.69 194.378C679.171 171.518 682.804 167.496 703.455 162.536C682.804 157.575 679.171 153.555 674.69 130.695Z" fill="#FBBF24"/>
<path d="M712.973 143.465C723.067 91.9647 731.25 82.9074 777.775 71.7326C731.25 60.5594 723.067 51.5004 712.973 0C702.879 51.5004 694.696 60.5578 648.171 71.7326C694.696 82.9074 702.879 91.9647 712.973 143.465Z" fill="#FBBF24"/>
<path d="M615.585 134.211C620.662 108.313 624.777 103.759 648.171 98.1405C624.775 92.5224 620.662 87.9661 615.585 62.0702C610.509 87.9677 606.394 92.5224 583 98.1405C606.394 103.759 610.509 108.313 615.585 134.211Z" fill="#FBBF24"/>
</g>
<defs>
<clipPath id="clip0_10_217">
<rect width="778" height="522" fill="white"/>
</clipPath>
</defs>
</svg>
